<svg width="128" height="128" viewBox="0 0 128 128" fill="none" xmlns="http://www.w3.org/2000/svg">
<rect width="128" height="128" fill="white"/>
<path d="M19 92V39.5L29 33V86L36 89.5V30L45.5 24V95L52 98.5V20L65 13L110.5 39.5V92L85 106V95L100.5 86V44.5L65 24L61 26.5V116L19 92Z" fill="black"/>
<path d="M68.5 116V53L78.5 58V79.5L83.5 77V53L68.5 44.5V34L94 48.5V83L78.5 92V109.5L68.5 116Z" fill="black"/>
<path d="M17 90V37.5L27 31V84L34 87.5V28L43.5 22V93L50 96.5V18L63 11L108.5 37.5V90L83 104V93L98.5 84V42.5L63 22L59 24.5V114L17 90Z" fill="#FD643C"/>
<path d="M66.5 114V51L76.5 56V77.5L81.5 75V51L66.5 42.5V32L92 46.5V81L76.5 90V107.5L66.5 114Z" fill="#FD643C"/>
</svg>
